<svg width="118" height="64" viewBox="0 0 118 64" fill="none" xmlns="http://www.w3.org/2000/svg">
<g id="logo" clip-path="url(#clip0_6_70)">
<g id="Layer 2">
<g id="Vector">
<path d="M49.2823 2.04366V8.97132H47.8941V2.04366H45.4069V0.785134H51.7696V2.04366H49.2823Z" fill="url(#paint0_radial_6_70)"/>
<path d="M53.2735 8.95977V0.785134H54.6502V4.32979H58.7224V0.785134H60.1569V8.95977H58.7224V5.6114H54.6502V8.95977H53.2735Z" fill="url(#paint1_radial_6_70)"/>
<path d="M68.1392 0.785134V2.0783H63.7663V4.24896H67.688V5.47285H63.7663V7.66661H68.2549V8.95977H62.3549V0.785134H68.1392Z" fill="url(#paint2_radial_6_70)"/>
<path d="M41.0224 7.81671C41.0224 2.90962 35.3884 0 28.0886 0C18.8916 0 11.2216 4.94173 11.2216 11.5461C11.1969 12.3043 11.3221 13.06 11.5902 13.7698C11.8583 14.4797 12.264 15.1299 12.784 15.6832C13.304 16.2365 13.9282 16.6821 14.6208 16.9945C15.3135 17.3069 16.0611 17.48 16.8208 17.5039C20.0716 17.5039 21.2747 14.2594 21.2747 12.9432C21.2747 12.5968 21.2053 12.4121 21.0549 12.4121C20.6037 12.4121 20.0253 13.5667 18.3247 13.5667C17.1678 13.5667 15.4904 12.7007 15.4904 10.1721C15.4904 5.41512 20.4071 1.52408 27.4061 1.52408C34.22 1.52408 36.071 5.26502 36.071 7.64351C36.0297 8.66669 35.7356 9.66381 35.2148 10.5461C34.6941 11.4284 33.9629 12.1686 33.0863 12.7007C32.3283 12.5211 31.5516 12.432 30.7726 12.4351C29.3265 12.4351 28.6439 13.1164 28.6439 13.7976C28.6439 14.4788 29.3727 15.2293 30.7263 15.2293C31.0178 15.2409 31.3096 15.2137 31.5939 15.1485L32.8433 14.8483C33.5696 15.4272 34.1455 16.1723 34.5221 17.0204C34.8986 17.8686 35.0649 18.7948 35.0067 19.7207C35.0332 20.4929 34.8989 21.2621 34.6125 21.9799C34.326 22.6977 33.8935 23.3483 33.3424 23.8908C32.7912 24.4333 32.1333 24.8559 31.4102 25.1318C30.6871 25.4077 29.9146 25.5309 29.1414 25.4938C27.3313 25.4449 25.573 24.88 24.0743 23.8658C25.677 21.5397 26.8521 18.9477 27.5449 16.2107C31.0155 3.75248 32.6582 5.3343 32.6582 4.46834C32.6582 4.31824 32.5078 4.12196 32.1608 4.12196C30.4602 4.12196 25.3122 6.13098 22.4431 15.4833C21.8131 17.8244 20.9367 20.0923 19.8286 22.2493C17.6011 21.3052 15.2143 20.792 12.7949 20.7368C8.09804 20.6906 5.62235 23.0922 5.62235 25.4014C5.62235 27.7106 7.93608 29.8582 12.5635 29.8582C14.4464 29.8899 16.315 29.5271 18.0486 28.7932C19.7822 28.0594 21.3424 26.9707 22.6282 25.5977C24.3288 27.1795 27.5102 28.1609 30.8073 28.1609C35.5735 28.1609 40.1431 24.9511 40.1431 19.663C40.1095 18.3725 39.7029 17.1193 38.9722 16.0541C38.2415 14.9889 37.218 14.1572 36.0247 13.659C38.6392 12.4929 41.0224 10.6109 41.0224 7.81671ZM13.0725 27.3412C11.2216 27.3412 9.85647 26.5098 9.85647 25.182C9.85647 23.8542 11.372 22.8728 13.5237 22.8728C15.2709 22.9328 16.9906 23.3247 18.5908 24.0274C18.0216 24.9959 17.2183 25.8066 16.2544 26.3855C15.2904 26.9643 14.1965 27.2929 13.0725 27.3412Z" fill="url(#paint3_radial_6_70)"/>
<path d="M115.848 16.4994C115.729 16.5105 115.613 16.5472 115.51 16.607C115.406 16.6668 115.316 16.7482 115.247 16.8458C115.247 16.8458 109.833 24.6509 106.732 24.6509C106.573 24.6637 106.412 24.6433 106.261 24.591C106.11 24.5387 105.971 24.4557 105.854 24.3472C105.736 24.2387 105.643 24.107 105.579 23.9606C105.515 23.8141 105.482 23.656 105.483 23.4963C105.776 21.3188 106.868 19.3274 108.548 17.908C108.548 17.908 111.533 17.146 111.533 15.7489C111.559 15.5288 111.535 15.3058 111.462 15.0964C111.389 14.8871 111.27 14.6969 111.113 14.5403C110.956 14.3836 110.765 14.2645 110.556 14.1918C110.346 14.1192 110.122 14.0949 109.902 14.1209C108.745 14.1209 107.484 15.4833 105.355 15.4833C104.817 15.508 104.282 15.3884 103.805 15.1369C103.995 14.6197 104.086 14.0712 104.071 13.5205C104.118 11.9733 103.435 10.3915 102.082 10.3915C100.15 10.3915 99.1316 12.4351 99.1316 14.1324C99.1648 14.803 99.3776 15.4524 99.748 16.0129C100.118 16.5735 100.633 17.0245 101.237 17.3191C98.9233 20.2865 95.6725 23.9581 92.202 23.9581C89.8882 23.9581 89.3329 22.665 89.1825 21.0832H89.3329C95.3486 21.0832 97.9169 18.0581 97.9169 15.6103C97.8319 14.7149 97.3943 13.8897 96.7002 13.316C96.0061 12.7423 95.1122 12.4671 94.2149 12.5506C92.343 12.5753 90.5416 13.2674 89.1363 14.5019C89.0703 14.5233 89.0079 14.5544 88.9512 14.5943C87.5384 15.7464 85.8867 16.5706 84.1155 17.0074C84.1155 14.2479 82.5537 12.5506 80.7837 12.5506C80.0313 12.5621 79.3122 12.8624 78.7758 13.3892C78.2393 13.916 77.9268 14.6287 77.9031 15.3794C78.008 16.3794 78.4889 17.3026 79.249 17.9626C80.009 18.6226 80.9916 18.9703 81.9984 18.9356H82.1373C81.4894 21.0832 79.4071 23.554 77.371 23.554C75.7398 23.554 75.2076 21.9376 75.2076 20.1595C75.248 19.1863 75.4033 18.2213 75.6704 17.2845C78.47 13.659 83.3867 7.2394 83.3867 2.74797C83.4329 1.01606 82.6347 0 81.3159 0C76.5612 0 71.8759 13.3704 71.1239 20.0209C69.2961 22.1916 66.832 24.6394 65.0851 24.6394C64.9256 24.6521 64.7651 24.6318 64.6139 24.5795C64.4627 24.5272 64.324 24.4442 64.2066 24.3357C64.0891 24.2271 63.9955 24.0955 63.9317 23.949C63.8679 23.8026 63.8352 23.6445 63.8357 23.4848C64.1286 21.3073 65.2211 19.3158 66.9014 17.8964C66.9014 17.8964 69.8861 17.1344 69.8861 15.7373C69.9102 15.5182 69.8845 15.2964 69.8109 15.0886C69.7372 14.8807 69.6176 14.6921 69.4608 14.5367C69.3041 14.3814 69.1142 14.2633 68.9055 14.1913C68.6967 14.1193 68.4743 14.0953 68.2549 14.1209C67.098 14.1209 65.8371 15.4833 63.7084 15.4833C63.17 15.508 62.6347 15.3884 62.1582 15.1369C62.3484 14.6197 62.4386 14.0712 62.4243 13.5205C62.4706 11.9733 61.788 10.3915 60.4345 10.3915C58.5026 10.3915 57.4729 12.4351 57.4729 14.1324C57.5085 14.8039 57.7235 15.4536 58.0959 16.0141C58.4682 16.5745 58.9841 17.0251 59.59 17.3191C57.4151 20.552 54.9625 24.1082 53.5049 24.1082C52.8224 24.1082 52.4869 23.6118 52.4869 22.2493C52.4869 22.2493 55.7376 17.4923 55.7376 14.4442C55.7376 13.1972 54.4188 12.5506 53.1694 12.5506C52.672 12.5506 52.1861 13.0471 51.7349 13.8322C51.4196 13.4607 51.0331 13.1559 50.598 12.9358C50.1628 12.7157 49.688 12.5847 49.2014 12.5506C44.5739 12.5506 41.4388 19.0049 41.4388 22.3994C41.4388 25.4591 42.6882 27.168 45.3374 27.168C46.146 27.1627 46.9431 26.9763 47.6699 26.6226C48.3968 26.2689 49.0347 25.7569 49.5369 25.1243C49.6272 25.679 49.9069 26.1855 50.3285 26.558C50.7502 26.9304 51.2879 27.1459 51.8506 27.168C54.7659 27.168 56.6053 24.3276 60.7816 17.8387C61.5287 18.0832 62.3091 18.2117 63.0953 18.2197C63.0953 18.2197 59.2776 21.6836 59.2776 24.293C59.2776 26.1404 60.4345 27.168 62.5284 27.168C65.6982 27.168 68.8218 24.5932 71.1124 22.0992C71.2743 25.3552 73.1716 27.168 75.8092 27.168C79.9739 27.168 83.5602 22.7112 84.0576 18.7047C84.9568 18.4729 85.8292 18.1478 86.6606 17.7348C85.9164 19.1621 85.5201 20.7444 85.5037 22.3532C85.4529 22.9844 85.5384 23.6191 85.7546 24.2145C85.9707 24.8098 86.3125 25.3519 86.7567 25.804C87.2009 26.2561 87.7373 26.6077 88.3294 26.8351C88.9216 27.0624 89.5557 27.1602 90.189 27.1218C94.8165 27.1218 98.4027 23.4617 102.51 17.7925C103.255 18.045 104.036 18.1737 104.823 18.1736C104.823 18.1736 101.006 21.6374 101.006 24.2468C101.006 26.0942 102.163 27.1218 104.256 27.1218C110.388 27.1218 116.404 17.4461 116.404 17.4461C116.47 17.3047 116.51 17.1519 116.519 16.9959C116.517 16.9157 116.496 16.8371 116.459 16.766C116.422 16.6949 116.369 16.6332 116.304 16.5854C116.24 16.5376 116.165 16.505 116.086 16.4901C116.007 16.4753 115.926 16.4784 115.848 16.4994ZM80.749 5.43821C80.8994 5.43821 80.9688 5.62295 80.9688 5.81923C80.9688 6.90456 79.1526 10.3107 76.619 13.9015C76.619 13.9361 79.65 5.43821 80.749 5.43821ZM49.2708 22.9536C49.0409 23.2898 48.7368 23.5688 48.3817 23.769C48.0267 23.9692 47.6303 24.0853 47.2231 24.1082C45.939 24.1082 45.4878 23.1268 45.4878 21.8799C45.5261 20.6471 45.8216 19.4359 46.3555 18.3237C47.119 16.8573 48.2875 15.3794 49.722 15.3794C50.1308 15.3948 50.529 15.514 50.8788 15.7258C50.0684 18.066 49.5289 20.491 49.2708 22.9536ZM80.7028 16.026C80.693 15.9455 80.7003 15.8639 80.7243 15.7865C80.7482 15.709 80.7882 15.6375 80.8417 15.5765C80.8952 15.5155 80.9609 15.4664 81.0346 15.4325C81.1084 15.3985 81.1884 15.3804 81.2696 15.3794C81.7671 15.3794 82.4265 15.9452 82.4265 17.2268C81.3853 17.146 80.7028 16.6495 80.7028 16.0144V16.026ZM92.7688 15.0792C92.9558 15.0671 93.1432 15.0967 93.3172 15.1659C93.4913 15.2351 93.6478 15.3422 93.7752 15.4793C93.9026 15.6164 93.9978 15.7801 94.0538 15.9586C94.1099 16.1371 94.1254 16.3257 94.0992 16.5109C94.0992 19.2358 91.1492 19.6515 89.4024 19.6515H89.1825C89.4024 16.6495 91.3922 15.0677 92.7688 15.0677V15.0792Z" fill="url(#paint4_radial_6_70)"/>
<path d="M26.6541 34.2111L40.201 35.2271V33.1835L26.6541 34.2111Z" fill="url(#paint5_radial_6_70)"/>
<path d="M92.9886 34.2111L79.4418 33.1835V35.2271L92.9886 34.2111Z" fill="url(#paint6_radial_6_70)"/>
<path d="M45.3143 31.9942C45.2356 32.0581 45.1727 32.1393 45.1306 32.2314C45.0885 32.3235 45.0682 32.4241 45.0714 32.5253C45.0691 32.6298 45.0947 32.7329 45.1455 32.8242C45.1963 32.9155 45.2705 32.9917 45.3606 33.0449C45.7942 33.2532 46.2531 33.4045 46.7257 33.4952C47.3356 33.6212 47.9066 33.8903 48.3916 34.2804C48.5914 34.4809 48.7463 34.7214 48.846 34.9862C48.9458 35.2509 48.988 35.5337 48.97 35.816C48.9795 36.1286 48.9166 36.4392 48.7862 36.7236C48.6558 37.0079 48.4613 37.2584 48.218 37.4555C47.666 37.8914 46.9782 38.1202 46.2745 38.1021C45.0758 38.0942 43.927 37.6223 43.07 36.7859L44.0649 35.562C44.6569 36.1557 45.4388 36.5235 46.2745 36.6011C46.5287 36.6163 46.7808 36.5473 46.9918 36.4048C47.0786 36.3443 47.1485 36.2627 47.1951 36.1678C47.2416 36.0729 47.2632 35.9677 47.2578 35.8622C47.26 35.7575 47.2356 35.654 47.1871 35.5611C47.1386 35.4683 47.0674 35.3892 46.9802 35.331C46.6217 35.1289 46.2299 34.9921 45.8233 34.9269C45.1355 34.8002 44.4838 34.5243 43.9145 34.1187C43.7022 33.9216 43.5377 33.6787 43.4334 33.4087C43.3292 33.1386 43.288 32.8483 43.3129 32.56C43.2973 32.2437 43.3586 31.9284 43.4916 31.6409C43.6245 31.3534 43.8252 31.1022 44.0765 30.9089C44.6317 30.5119 45.3027 30.3089 45.9853 30.3316C46.4969 30.3361 47.0046 30.4219 47.4892 30.5856C47.9698 30.7428 48.4142 30.994 48.7965 31.3246L47.952 32.5369C47.3809 32.0759 46.6733 31.8161 45.939 31.7979C45.715 31.7946 45.496 31.8634 45.3143 31.9942Z" fill="url(#paint7_radial_6_70)"/>
<path d="M56.131 30.5048H57.8431V37.9867H56.131V35.0424H53.1463V37.9867H51.4804V30.5048H53.1463V33.6338H56.131V30.5048Z" fill="url(#paint8_radial_6_70)"/>
<path d="M67.0286 36.9475C66.271 37.6595 65.2696 38.056 64.229 38.056C63.1884 38.056 62.187 37.6595 61.4294 36.9475C60.7017 36.2127 60.2937 35.2211 60.2937 34.188C60.2937 33.1548 60.7017 32.1633 61.4294 31.4285C62.187 30.7165 63.1884 30.32 64.229 30.32C65.2696 30.32 66.271 30.7165 67.0286 31.4285C67.7619 32.1603 68.1739 33.153 68.1739 34.188C68.1739 35.223 67.7619 36.2156 67.0286 36.9475ZM66.4618 34.188C66.4774 33.5614 66.2494 32.9531 65.8255 32.4907C65.6279 32.2652 65.3842 32.0844 65.1109 31.9606C64.8375 31.8368 64.5408 31.7727 64.2406 31.7727C63.9404 31.7727 63.6437 31.8368 63.3703 31.9606C63.097 32.0844 62.8533 32.2652 62.6557 32.4907C62.2286 32.952 61.9965 33.56 62.0078 34.188C61.9959 34.8195 62.2279 35.4314 62.6557 35.8968C62.8553 36.119 63.0997 36.2968 63.3727 36.4185C63.6458 36.5402 63.9415 36.6031 64.2406 36.6031C64.5396 36.6031 64.8354 36.5402 65.1084 36.4185C65.3815 36.2968 65.6259 36.119 65.8255 35.8968C66.2473 35.4331 66.4751 34.8257 66.4618 34.1995V34.188Z" fill="url(#paint9_radial_6_70)"/>
<path d="M75.8324 31.1745C76.1075 31.4377 76.3207 31.7586 76.4567 32.114C76.5927 32.4693 76.6482 32.8504 76.619 33.2297C76.6502 33.6078 76.5934 33.988 76.4529 34.3405C76.3124 34.693 76.0921 35.0083 75.8092 35.2618C75.0785 35.7451 74.2077 35.9725 73.3335 35.9084H72.3386V37.9867H70.6612V30.5048H73.3104C74.2036 30.4274 75.0958 30.6643 75.8324 31.1745ZM74.5945 34.1187C74.8169 33.8421 74.9246 33.4908 74.8953 33.1373C74.9143 32.9626 74.8882 32.786 74.8193 32.6243C74.7504 32.4625 74.6412 32.3212 74.502 32.2136C74.1346 32.0003 73.711 31.9037 73.2873 31.9365H72.3386V34.4535H73.4955C73.6919 34.475 73.8905 34.4563 74.0795 34.3988C74.2684 34.3412 74.4436 34.2459 74.5945 34.1187Z" fill="url(#paint10_radial_6_70)"/>
<path d="M45.0251 54.9248C43.5096 54.9248 42.3065 55.8023 42.3065 57.0262C42.3065 58.7581 44.7243 59.4739 44.7243 61.4945C44.7489 61.6895 44.7317 61.8874 44.6738 62.0753C44.6159 62.2631 44.5186 62.4365 44.3884 62.5839C44.2582 62.7313 44.098 62.8494 43.9186 62.9303C43.7392 63.0112 43.5445 63.0531 43.3476 63.0532C43.1922 63.0674 43.0355 63.0473 42.8886 62.9943C42.7418 62.9413 42.6085 62.8567 42.4981 62.7465C42.3877 62.6363 42.3029 62.5033 42.2498 62.3567C42.1967 62.2102 42.1766 62.0538 42.1908 61.8986C42.1908 61.0904 42.9312 60.744 43.5675 60.744C43.5675 60.1321 42.9427 59.9589 42.5263 59.9589C42.2835 59.966 42.0448 60.0222 41.8245 60.1241C41.6042 60.226 41.4069 60.3716 41.2447 60.5519C41.0824 60.7322 40.9585 60.9435 40.8805 61.173C40.8025 61.4025 40.7721 61.6454 40.791 61.8871C40.791 63.3303 41.9478 63.9192 43.2898 63.9192C43.7054 63.9625 44.1255 63.919 44.5233 63.7913C44.9211 63.6636 45.2879 63.4546 45.6003 63.1776C45.9126 62.9006 46.1638 62.5617 46.3376 62.1824C46.5115 61.8032 46.6042 61.3919 46.61 60.9749C46.61 58.4348 43.9492 58.1923 43.9492 56.4604C43.9363 56.3157 43.9558 56.1699 44.0063 56.0336C44.0567 55.8973 44.1369 55.7739 44.2409 55.6723C44.3449 55.5706 44.4703 55.4933 44.6079 55.4459C44.7455 55.3985 44.892 55.3822 45.0367 55.3982C45.6845 55.3982 45.9159 55.7676 45.9159 56.1833C45.9141 56.3826 45.865 56.5787 45.7725 56.7553C45.6799 56.932 45.5467 57.0842 45.3837 57.1994C45.4495 57.2788 45.5328 57.342 45.6272 57.3841C45.7215 57.4261 45.8242 57.4459 45.9275 57.4418C46.5175 57.4418 46.8876 56.9338 46.8876 56.2872C46.9224 55.0402 45.5804 54.9248 45.0251 54.9248Z" fill="url(#paint11_radial_6_70)"/>
<path d="M71.9222 62.6837C71.5751 62.6837 71.4594 62.4759 71.4594 62.1873C71.4594 61.5291 72.0147 60.0974 72.0147 59.1506C72.0438 58.9717 72.0303 58.7885 71.9753 58.6158C71.9203 58.443 71.8253 58.2856 71.698 58.1564C71.5707 58.0271 71.4147 57.9295 71.2426 57.8716C71.0705 57.8136 70.8872 57.7969 70.7075 57.8228C70.4432 57.8222 70.1822 57.8811 69.9438 57.995C69.7055 58.109 69.496 58.2751 69.3308 58.481L69.458 57.869H67.7575L67.4335 59.4393C67.1345 59.5745 66.8128 59.6528 66.4849 59.6702C66.4431 59.6805 66.3994 59.6805 66.3577 59.6702C66.3577 58.4348 65.8602 57.7767 64.8422 57.7767C64.3021 57.7843 63.7753 57.9446 63.3228 58.2388C62.8703 58.5331 62.5107 58.9493 62.2855 59.4393C61.9773 59.5868 61.6433 59.673 61.3022 59.6933C61.2604 59.7036 61.2167 59.7036 61.1749 59.6933C61.1749 58.4579 60.6775 57.7997 59.671 57.7997C57.23 57.7997 56.4318 60.6285 56.4318 61.9794C56.4318 61.9794 56.4318 61.9794 56.4318 62.0487C56.3514 62.2314 56.2249 62.3902 56.0648 62.5096C55.9046 62.6289 55.7162 62.7049 55.5178 62.7299C55.1939 62.7299 55.032 62.626 55.032 62.2912C55.0182 62.1645 55.0182 62.0368 55.032 61.9102L56.3971 55.5598L54.6502 55.7907L53.4471 61.6446C53.2735 62.2334 52.9612 62.7992 52.4984 62.7992C52.0357 62.7992 52.0588 62.5798 52.0588 62.245C52.0451 62.1184 52.0451 61.9906 52.0588 61.864L52.9149 57.869H51.2027L51.0755 58.4925V58.4117C51.0755 58.0653 50.7863 57.8113 50.1153 57.8113C48.0561 57.8113 47.0843 60.3399 47.0843 61.9217C47.0843 63.3303 47.8478 63.8268 48.6461 63.8268C49.0077 63.811 49.3592 63.703 49.6671 63.513C49.9749 63.3229 50.2288 63.0573 50.4045 62.7415C50.4042 62.89 50.4345 63.0371 50.4934 63.1735C50.5523 63.3099 50.6387 63.4328 50.7472 63.5345C50.8556 63.6362 50.9838 63.7147 51.1239 63.765C51.2639 63.8152 51.4128 63.8363 51.5614 63.8268C51.9361 63.8214 52.303 63.7185 52.6256 63.5281C52.9482 63.3378 53.2154 63.0666 53.4008 62.7415C53.4187 63.0458 53.5565 63.3307 53.784 63.534C54.0116 63.7373 54.3105 63.8426 54.6155 63.8268C55.0114 63.8164 55.398 63.7048 55.7383 63.5027C56.0785 63.3005 56.3611 63.0146 56.559 62.6722C56.683 63.0277 56.9249 63.3302 57.2447 63.5297C57.5645 63.7292 57.943 63.8137 58.3175 63.7691C59.7751 63.7691 60.9551 62.3951 61.1402 60.2244C61.4304 60.1666 61.7164 60.0894 61.9963 59.9935C61.7599 60.6018 61.6307 61.2464 61.6145 61.8986C61.5821 62.1529 61.6087 62.4113 61.6922 62.6538C61.7757 62.8962 61.9139 63.1163 62.0961 63.297C62.2783 63.4778 62.4997 63.6143 62.7431 63.6962C62.9865 63.778 63.2456 63.8029 63.5002 63.7691C64.9463 63.7691 66.1378 62.3951 66.3229 60.2244C66.6642 60.1651 66.9979 60.0683 67.3178 59.9358L66.508 63.7113H68.2549L69.0647 59.9358C69.2382 59.3469 69.5506 58.8504 69.9786 58.8504C70.4067 58.8504 70.4067 59.0698 70.4067 59.4508C70.4067 60.2129 69.8745 61.6561 69.8745 62.4528C69.8745 63.2495 70.1522 63.7922 71.0314 63.7922C71.3639 63.8015 71.6867 63.6794 71.9293 63.4523C72.172 63.2252 72.315 62.9116 72.3271 62.5798C72.2052 62.6532 72.0644 62.6893 71.9222 62.6837ZM50.3929 61.6446C50.3703 61.9012 50.2624 62.1428 50.0863 62.3311C49.9102 62.5194 49.6761 62.6435 49.4212 62.6837C49.2014 62.6837 48.8312 62.6837 48.8312 61.7601C48.8312 60.6054 49.479 58.5387 50.4855 58.5387C50.5467 58.5356 50.6078 58.5449 50.6653 58.5661C50.7227 58.5873 50.7752 58.62 50.8196 58.6621C50.864 58.7043 50.8993 58.755 50.9234 58.8112C50.9475 58.8674 50.9599 58.9279 50.9598 58.989L50.3929 61.6446ZM60.1569 60.2937C59.9718 61.6792 59.3702 62.7415 58.7918 62.7415C58.2133 62.7415 58.1902 62.5567 58.1902 61.7831C58.1902 60.6285 58.919 58.481 59.752 58.481C60.0643 58.481 60.18 58.6657 60.2031 59.1622C60.0853 59.2185 59.9876 59.3096 59.9234 59.4232C59.8593 59.5368 59.8317 59.6674 59.8445 59.7972C59.8445 60.0397 59.9139 60.236 60.1569 60.2937ZM65.3396 60.2937C65.1545 61.6792 64.5529 62.7415 63.9745 62.7415C63.3961 62.7415 63.3729 62.5567 63.3729 61.7831C63.3729 60.6285 64.1018 58.481 64.9347 58.481C65.2471 58.481 65.3627 58.6657 65.3859 59.1622C65.268 59.2185 65.1703 59.3096 65.1062 59.4232C65.042 59.5368 65.0145 59.6674 65.0273 59.7972C65.0273 60.0397 65.0967 60.236 65.3396 60.2937Z" fill="url(#paint12_radial_6_70)"/>
<path d="M58.1555 48.2511C58.1711 48.1222 58.1474 47.9916 58.0876 47.8762C58.0278 47.7609 57.9345 47.6662 57.82 47.6045C57.7171 47.544 57.603 47.5047 57.4845 47.4891C57.2688 47.4762 57.0524 47.4762 56.8367 47.4891C56.0037 47.4891 55.5873 47.4891 54.7543 47.4083C54.7543 48.0202 54.7543 48.332 54.6733 48.9554C55.5178 48.9554 55.9459 48.9554 56.7904 49.0363C57.0098 49.0557 57.2304 49.0557 57.4498 49.0363C57.5696 49.0237 57.6867 48.9925 57.7969 48.9439C57.924 48.8831 58.0279 48.7826 58.0926 48.6575C58.1573 48.5325 58.1794 48.3898 58.1555 48.2511Z" fill="url(#paint13_radial_6_70)"/>
<path d="M112.979 29.9044C76.1794 48.6552 41.809 48.6552 5.02078 29.9044C5.20588 32.3291 5.32157 33.4837 5.63392 35.9199C3.47059 36.9475 2.31373 37.444 0 38.3792C39.8424 58.9544 78.1577 58.9544 118 38.3792C115.686 37.444 114.529 36.959 112.355 35.9199C112.667 33.4837 112.794 32.3291 112.979 29.9044ZM18.6024 43.7597C17.8504 43.4364 17.4455 43.2632 16.7282 42.9168V42.7898C16.8154 42.8134 16.9072 42.8134 16.9943 42.7898C17.0567 42.7575 17.1059 42.7044 17.1331 42.6397C17.4918 41.8661 17.6769 41.4851 18.0239 40.7C16.6704 40.0765 15.9994 39.7532 14.669 39.0835L13.7088 40.9771C13.6934 41.0096 13.6854 41.0451 13.6854 41.081C13.6854 41.117 13.6934 41.1524 13.7088 41.1849C13.7395 41.2695 13.7962 41.3422 13.8708 41.3927L13.8824 41.5659C13.142 41.1965 12.7255 41.0002 12.0314 40.6076L12.1008 40.4922C12.188 40.5146 12.2796 40.5146 12.3669 40.4922C12.4322 40.4658 12.4857 40.4165 12.5173 40.3536L14.831 35.9199C14.845 35.887 14.8522 35.8517 14.8522 35.816C14.8522 35.7803 14.845 35.7449 14.831 35.7121C14.8071 35.6334 14.7584 35.5646 14.6922 35.5158L14.75 35.3888L16.4853 36.2894L16.4275 36.4048C16.3443 36.3811 16.2561 36.3811 16.1729 36.4048C16.1407 36.4189 16.1116 36.4395 16.0877 36.4653C16.0638 36.4912 16.0456 36.5217 16.0341 36.5549L15.1665 38.2522C16.4853 38.9219 17.1563 39.2452 18.4982 39.8571C18.8106 39.1644 18.9725 38.818 19.2965 38.1367C19.3187 38.0653 19.3187 37.9888 19.2965 37.9174C19.2607 37.842 19.2046 37.7781 19.1345 37.7326L19.1924 37.5941C19.898 37.9289 20.2567 38.0906 20.9624 38.4023C20.9576 38.4445 20.9576 38.4871 20.9624 38.5293C20.8753 38.5052 20.7833 38.5052 20.6963 38.5293C20.6384 38.5293 20.6037 38.6101 20.5575 38.6794L18.5329 43.2979C18.5059 43.3645 18.5059 43.439 18.5329 43.5057C18.5726 43.5851 18.6324 43.6528 18.7065 43.702L18.6024 43.7597ZM27.9845 47.339C27.0706 47.0388 26.6194 46.8887 25.6708 46.5654C25.6708 46.5077 25.6708 46.4846 25.6708 46.4268C25.879 46.4268 26.0063 46.4268 26.0525 46.2883C26.0765 46.1936 26.0765 46.0944 26.0525 45.9996C25.9947 45.6302 25.9716 45.4454 25.9137 45.0644C24.7569 44.6718 24.2478 44.464 23.1488 44.0368C22.8712 44.2908 22.7208 44.4063 22.4431 44.6487C22.3663 44.7077 22.3031 44.7825 22.258 44.8681C22.258 44.9951 22.258 45.1106 22.4547 45.2376C22.4547 45.2376 22.4547 45.3069 22.4547 45.3646L20.4302 44.5448C20.4302 44.5448 20.4302 44.464 20.4302 44.4178C20.5353 44.453 20.649 44.453 20.7541 44.4178C20.8805 44.3631 20.9976 44.2891 21.1012 44.1984C22.6745 42.8822 23.4149 42.2125 24.9651 40.8501C25.0608 40.7779 25.1364 40.6825 25.1849 40.573C25.1849 40.446 25.1849 40.3305 25.0461 40.215C25.0396 40.173 25.0396 40.1301 25.0461 40.088L27.1053 40.8501C27.1053 40.8501 27.1053 40.9309 27.1053 40.9771C27.1053 41.0233 26.8045 40.9771 26.7698 41.1272C26.7448 41.2257 26.7448 41.3289 26.7698 41.4274C27.0474 43.4595 27.2094 44.4756 27.5796 46.5077C27.5944 46.6693 27.6416 46.8264 27.7184 46.9695C27.7792 47.0722 27.8673 47.1561 27.9729 47.212C27.9816 47.2537 27.9855 47.2963 27.9845 47.339ZM33.3755 42.963C33.2921 42.941 33.2044 42.941 33.121 42.963C33.0643 43.0064 33.0237 43.0673 33.0053 43.1362L31.6171 47.9394C31.5932 48.0066 31.5932 48.08 31.6171 48.1472C31.6691 48.2187 31.7362 48.2778 31.8137 48.3204C31.8137 48.3781 31.8137 48.4012 31.8137 48.459L29.8586 47.8817V47.7431C29.9453 47.7698 30.038 47.7698 30.1247 47.7431C30.1844 47.7026 30.2258 47.6404 30.2404 47.5699C30.8304 45.6533 31.1196 44.6949 31.698 42.7898C31.721 42.7224 31.721 42.6494 31.698 42.582C31.6542 42.5078 31.59 42.4477 31.5129 42.4088C31.5129 42.4088 31.5129 42.328 31.5129 42.2703L33.3524 42.8245C33.3527 42.8754 33.3605 42.9259 33.3755 42.9746V42.963ZM41.6471 46.5769C41.4735 47.5237 40.8026 47.974 39.6457 47.9047C39.9927 48.6437 40.1778 49.0594 40.5365 49.7406C40.6391 49.9661 40.7672 50.1791 40.9182 50.3756C41.0057 50.4836 41.1287 50.5572 41.2653 50.5834C41.2653 50.5834 41.2653 50.6643 41.2653 50.7104C40.3398 50.5488 39.8771 50.4564 38.9516 50.2601V50.1216C39.1135 50.1216 39.2061 50.1216 39.2176 50.0177C39.1997 49.8731 39.1482 49.7347 39.0673 49.6136C38.6971 48.8169 38.5235 48.459 38.1649 47.6392L36.5106 47.2582C36.3371 48.0202 36.2329 48.4128 36.0594 49.1633C36.0356 49.2305 36.0356 49.3039 36.0594 49.3711C36.1111 49.4445 36.1837 49.5008 36.2676 49.5327C36.2729 49.5788 36.2729 49.6253 36.2676 49.6713L34.301 49.1748C34.2958 49.1326 34.2958 49.09 34.301 49.0478C34.3843 49.0704 34.4722 49.0704 34.5555 49.0478C34.6121 49.0044 34.6528 48.9435 34.6712 48.8746C35.1571 46.9464 35.4116 45.9765 35.909 44.0368C35.9328 43.9696 35.9328 43.8962 35.909 43.829C35.8626 43.7554 35.7936 43.6987 35.7124 43.6673C35.7124 43.6096 35.7124 43.5865 35.7124 43.5288C37.2047 43.9098 37.9567 44.0945 39.449 44.4178C39.8161 44.4848 40.1762 44.5853 40.5249 44.718C40.767 44.8125 40.9903 44.9494 41.1843 45.1221C41.382 45.3149 41.5222 45.5588 41.5892 45.8264C41.6634 46.0694 41.6831 46.3256 41.6471 46.5769ZM49.479 51.2647C49.1582 51.4607 48.7994 51.5866 48.4263 51.6341C47.9307 51.6958 47.4295 51.6958 46.9339 51.6341C45.4994 51.4494 44.7822 51.3455 43.3592 51.1146V50.976C43.4455 50.9794 43.5307 50.9551 43.6022 50.9067C43.6591 50.8606 43.6963 50.7945 43.7063 50.722C44.0186 48.7476 44.1806 47.7662 44.4929 45.7918C44.5188 45.7249 44.5188 45.6509 44.4929 45.584C44.44 45.5144 44.3675 45.4621 44.2847 45.4339C44.2847 45.4339 44.2847 45.3531 44.2847 45.2953C45.6267 45.5147 46.3092 45.6186 47.6627 45.7918C48.2473 45.8373 48.8191 45.9859 49.3518 46.2306C49.8827 46.5117 50.2936 46.9752 50.5086 47.5353C50.6953 48.0284 50.7627 48.5585 50.7053 49.0824C50.6866 49.5206 50.5622 49.9478 50.3426 50.3277C50.1231 50.7076 49.8149 51.029 49.4443 51.2647H49.479ZM59.8908 52.4193C58.9537 52.4193 58.491 52.4193 57.5771 52.4193V52.2923C57.739 52.2923 57.82 52.2114 57.8316 52.1306C57.7797 51.996 57.7053 51.8711 57.6118 51.7611L56.3624 49.983L54.6733 49.9138C54.6733 50.6989 54.6155 51.0684 54.5808 51.8651C54.5668 51.8979 54.5596 51.9333 54.5596 51.969C54.5596 52.0047 54.5668 52.04 54.5808 52.0729C54.6457 52.132 54.7258 52.172 54.8122 52.1883C54.8122 52.1883 54.8122 52.2692 54.8122 52.3269L52.7876 52.2114C52.7933 52.1654 52.7933 52.1189 52.7876 52.0729C52.8742 52.0594 52.957 52.028 53.0306 51.9805C53.0581 51.9561 53.0797 51.9257 53.0937 51.8917C53.1078 51.8577 53.1139 51.8209 53.1116 51.7842C53.2504 49.7868 53.3082 48.7938 53.4471 46.7963C53.4532 46.7224 53.4327 46.6487 53.3892 46.5885C53.3336 46.5269 53.2613 46.4828 53.181 46.4615V46.2998C54.708 46.4038 55.4947 46.4384 56.9986 46.4846C57.3866 46.4845 57.7738 46.5193 58.1555 46.5885C58.4113 46.63 58.6556 46.7244 58.8727 46.8656C59.1021 47.0149 59.2829 47.2275 59.3933 47.4775C59.5056 47.7279 59.5609 48 59.5553 48.2742C59.5553 49.2325 58.9769 49.7983 57.8316 49.9369C58.3059 50.6065 58.5604 50.9298 58.9884 51.5879C59.1302 51.7894 59.2931 51.9752 59.4743 52.1422C59.5849 52.2253 59.7178 52.2736 59.8561 52.2807C59.8561 52.2807 59.8561 52.3615 59.8561 52.4193H59.8908ZM68.2549 52.3384C68.2318 52.2594 68.183 52.1903 68.1161 52.1422C68.0816 52.1265 68.0441 52.1185 68.0062 52.1185C67.9683 52.1185 67.9308 52.1265 67.8963 52.1422C65.5825 52.3269 64.4257 52.3846 62.0194 52.4308C62.0194 52.4308 62.0194 52.35 62.0194 52.3038C62.1089 52.2893 62.1906 52.2445 62.2508 52.1768C62.2756 52.1508 62.2946 52.1199 62.3066 52.0861C62.3185 52.0522 62.3232 52.0163 62.3202 51.9805C62.2624 49.983 62.2392 48.9901 62.1929 46.9926C62.1961 46.9551 62.1916 46.9173 62.1797 46.8816C62.1678 46.8458 62.1486 46.8129 62.1235 46.7848C62.0631 46.7278 61.9862 46.6915 61.9037 46.6809C61.9037 46.6809 61.9037 46.6 61.9037 46.5423C64.0786 46.5423 65.1777 46.4384 67.341 46.2767C67.4174 46.2735 67.4906 46.245 67.5492 46.1959C67.5953 46.1302 67.6268 46.0554 67.6418 45.9765H67.7806C67.7806 46.5769 67.8616 46.8887 67.9194 47.4891H67.769C67.7367 47.4115 67.6896 47.3409 67.6302 47.2813C67.5632 47.2555 67.489 47.2555 67.422 47.2813C65.8833 47.3967 65.1082 47.4429 63.5696 47.5006C63.5696 48.0548 63.5696 48.3435 63.5696 48.8977C64.5876 48.8977 65.0967 48.8284 66.1031 48.7707C66.1796 48.7674 66.2528 48.739 66.3114 48.6899C66.3684 48.6296 66.4049 48.5528 66.4155 48.4705H66.5659C66.5659 49.0709 66.6237 49.3596 66.67 49.9599H66.5196C66.5181 49.8459 66.4772 49.7358 66.4039 49.6482C66.3329 49.6226 66.2551 49.6226 66.1841 49.6482C65.1545 49.7175 64.6455 49.7406 63.6159 49.7752C63.6159 50.4218 63.6159 50.7451 63.6853 51.3917C65.3396 51.3339 66.161 51.2762 67.8037 51.1492C67.8832 51.1438 67.9595 51.1157 68.0235 51.0684C68.0764 51.0066 68.1087 50.9299 68.1161 50.849H68.2549C68.3127 51.4494 68.3359 51.7611 68.3937 52.3615L68.2549 52.3384ZM76.1678 50.3756C75.8812 50.7716 75.4762 51.0667 75.011 51.2185C74.5866 51.3854 74.1439 51.5017 73.6922 51.5649C72.821 51.673 71.9366 51.5902 71.1008 51.3224C70.9985 51.2782 70.8884 51.2546 70.7769 51.2531C70.7769 51.2531 70.6843 51.2531 70.5918 51.3686L70.4529 51.3108L70.9851 49.7983H71.1239C71.1359 49.8675 71.1628 49.9333 71.2027 49.9911C71.2427 50.0489 71.2947 50.0974 71.3553 50.1331C71.6644 50.2983 72.0019 50.4041 72.3502 50.4449C72.757 50.5021 73.1697 50.5021 73.5765 50.4449C73.9409 50.4058 74.2923 50.2876 74.6061 50.0985C74.7489 50.0138 74.8683 49.8947 74.9531 49.7521C75.0286 49.6404 75.0576 49.5038 75.0341 49.3711C75.0211 49.2738 74.9749 49.1839 74.9032 49.1166C74.8316 49.0493 74.7389 49.0087 74.6408 49.0016C74.3177 48.9691 73.9921 48.9691 73.669 49.0016H72.9518C72.6088 49.0197 72.2651 49.0197 71.9222 49.0016C71.7131 48.986 71.507 48.9433 71.309 48.8746C71.0249 48.7798 70.7753 48.603 70.5918 48.3666C70.4195 48.1427 70.3152 47.8742 70.291 47.593C70.2599 47.3619 70.279 47.1269 70.3468 46.9038C70.4147 46.6807 70.5298 46.4747 70.6843 46.2998C71.225 45.7679 71.9396 45.4482 72.6973 45.3992C73.0628 45.3652 73.4307 45.3652 73.7963 45.3992C74.2375 45.4411 74.6747 45.5184 75.1035 45.6302H75.439C75.5224 45.6095 75.5961 45.5605 75.6473 45.4916H75.7745C75.5778 46.0805 75.4853 46.3807 75.2771 46.9811H75.1382C75.1394 46.9618 75.1394 46.9426 75.1382 46.9233C75.1382 46.8233 75.0341 46.7309 74.8259 46.6462C74.2023 46.4234 73.528 46.3834 72.8824 46.5308C72.5999 46.5665 72.3236 46.6403 72.061 46.7501C71.905 46.8183 71.7695 46.9257 71.6676 47.0619C71.5792 47.1731 71.534 47.3126 71.5404 47.4544C71.5404 47.6738 71.7371 47.8124 72.0263 47.847C72.3419 47.874 72.6593 47.874 72.9749 47.847H73.7037C74.0542 47.822 74.406 47.822 74.7565 47.847C75.0125 47.8777 75.2623 47.9478 75.4969 48.0548C75.7289 48.1575 75.9317 48.3162 76.0869 48.5167C76.2801 48.7882 76.384 49.1131 76.384 49.4461C76.384 49.7792 76.2801 50.1041 76.0869 50.3756H76.1678ZM84.3469 48.7014C84.0986 49.1149 83.7319 49.4446 83.2941 49.6482C82.888 49.8571 82.4563 50.0124 82.01 50.1101C81.1489 50.3002 80.2566 50.3002 79.3955 50.1101C79.2879 50.0963 79.1791 50.0963 79.0716 50.1101C79.0021 50.1337 78.9415 50.178 78.898 50.2371H78.7476C78.9096 49.6136 79.0022 49.3018 79.1525 48.6783H79.3029C79.3203 48.7472 79.3533 48.8112 79.3995 48.8652C79.4456 48.9193 79.5036 48.962 79.569 48.9901C79.8873 49.1405 80.2349 49.2193 80.5871 49.221C80.997 49.2577 81.4101 49.2343 81.8133 49.1517C82.1755 49.0763 82.5182 48.9269 82.8198 48.713C82.9513 48.6157 83.0582 48.4892 83.1322 48.3435C83.1762 48.2163 83.1762 48.0781 83.1322 47.9509C83.1066 47.8574 83.0508 47.775 82.9733 47.7165C82.8959 47.658 82.8012 47.6268 82.7041 47.6276C82.3772 47.5946 82.0477 47.5946 81.7208 47.6276L81.0035 47.72C80.6659 47.7654 80.3261 47.7924 79.9855 47.8008C79.7749 47.7967 79.5654 47.7696 79.3608 47.72C79.0994 47.6572 78.8598 47.5256 78.6667 47.339C78.4754 47.1297 78.3506 46.8686 78.308 46.5885C78.257 46.3613 78.2564 46.1258 78.3064 45.8983C78.3563 45.6709 78.4556 45.4572 78.5973 45.2722C79.0869 44.6912 79.7755 44.3126 80.5292 44.21C80.9079 44.1192 81.2966 44.0766 81.6861 44.083C82.1315 44.0846 82.5762 44.1194 83.0165 44.1869C83.1274 44.207 83.2411 44.207 83.352 44.1869C83.4349 44.1648 83.5056 44.1109 83.5486 44.0368H83.6874C83.5371 44.6487 83.4561 44.9489 83.3057 45.5609H83.1553C83.1553 45.5609 83.1553 45.5609 83.1553 45.4916C83.1553 45.4223 83.0165 45.3184 82.8198 45.2491C82.1869 45.0295 81.5039 44.9974 80.8531 45.1568C80.5703 45.212 80.2973 45.3093 80.0433 45.4454C79.8917 45.5266 79.7641 45.646 79.6731 45.7918C79.594 45.9064 79.561 46.0466 79.5806 46.1844C79.5806 46.4038 79.8004 46.5192 80.1012 46.5423C80.4187 46.5432 80.7358 46.5201 81.0498 46.473L81.7671 46.3807C82.1198 46.3335 82.4754 46.3103 82.8314 46.3114C83.0876 46.3197 83.3411 46.3664 83.5833 46.4499C83.8238 46.5386 84.0384 46.6854 84.208 46.8771C84.3827 47.0663 84.5061 47.2968 84.5667 47.5468C84.6438 47.9471 84.5607 48.3615 84.3353 48.7014H84.3469ZM87.2275 48.7014C87.2313 48.6592 87.2313 48.6167 87.2275 48.5744C87.3104 48.5352 87.382 48.4756 87.4357 48.4012C87.4586 48.3338 87.4586 48.2608 87.4357 48.1934L86.0822 43.3787C86.0676 43.3081 86.0261 43.246 85.9665 43.2055C85.8831 43.1835 85.7954 43.1835 85.712 43.2055C85.7172 43.1633 85.7172 43.1207 85.712 43.0785C86.4523 42.8707 86.8688 42.7667 87.5629 42.5358C87.5629 42.5358 87.5629 42.6166 87.5629 42.6744C87.483 42.7135 87.4151 42.7733 87.3663 42.8476C87.3434 42.9149 87.3434 42.988 87.3663 43.0554C87.9331 44.972 88.2224 45.9304 88.7892 47.8355C88.8091 47.9098 88.854 47.9751 88.9165 48.0202C89.0001 48.0403 89.0873 48.0403 89.171 48.0202C89.171 48.0779 89.171 48.101 89.171 48.1472C88.3959 48.3435 88.0025 48.4936 87.2159 48.6668L87.2275 48.7014ZM96.6559 45.584C96.6559 45.5262 96.6559 45.5032 96.6559 45.457C96.6559 45.4108 96.8063 45.3069 96.7716 45.2145C96.7369 45.1221 96.6443 45.0875 96.4476 45.0182C94.5851 44.2677 93.6712 43.8636 91.8896 43.0438C92.3639 44.3947 92.5953 45.076 93.0465 46.4268C93.067 46.4978 93.1121 46.5592 93.1737 46.6C93.2605 46.626 93.353 46.626 93.4398 46.6C93.4463 46.6421 93.4463 46.685 93.4398 46.727L91.6235 47.339C91.6188 47.2968 91.6188 47.2542 91.6235 47.212C91.7018 47.1695 91.766 47.1053 91.8086 47.0272C91.8258 46.9953 91.8348 46.9596 91.8348 46.9233C91.8348 46.8871 91.8258 46.8514 91.8086 46.8194C91.1839 44.9143 90.8716 43.9675 90.2353 42.074C90.2207 42.0034 90.1793 41.9413 90.1196 41.9008C90.036 41.8807 89.9487 41.8807 89.8651 41.9008C89.8701 41.8547 89.8701 41.8083 89.8651 41.7622C90.6633 41.5082 91.022 41.3697 91.8665 41.0925C91.8665 41.0925 91.8665 41.1618 91.8665 41.2196C91.8207 41.2419 91.7841 41.2795 91.763 41.3258C91.7419 41.3722 91.7375 41.4244 91.7508 41.4736C91.7966 41.5504 91.8654 41.611 91.9475 41.6468C93.6943 42.4665 94.5851 42.8591 96.4129 43.598C95.9039 42.2933 95.6378 41.6468 95.1288 40.3421C95.1194 40.308 95.1033 40.2762 95.0815 40.2484C95.0596 40.2207 95.0325 40.1976 95.0016 40.1804C94.9187 40.1547 94.8299 40.1547 94.7471 40.1804C94.744 40.1381 94.744 40.0957 94.7471 40.0534L96.4361 39.3722V39.4992C96.3596 39.5455 96.299 39.6139 96.2626 39.6955C96.2486 39.7283 96.2413 39.7637 96.2413 39.7994C96.2413 39.8351 96.2486 39.8704 96.2626 39.9033C97.0261 41.7507 97.4194 42.6744 98.1482 44.5217C98.1596 44.5565 98.1776 44.5887 98.2015 44.6164C98.2253 44.6441 98.2544 44.6669 98.2871 44.6834C98.3732 44.7133 98.467 44.7133 98.5531 44.6834V44.8104C97.8012 45.099 97.4194 45.2491 96.6443 45.5493L96.6559 45.584ZM104.372 42.3511C103.559 42.7888 102.628 42.9624 101.711 42.8476C101.243 42.7801 100.801 42.591 100.43 42.2991C100.058 42.0073 99.7701 41.623 99.5943 41.1849C99.4068 40.7911 99.3164 40.3582 99.3304 39.9224C99.3445 39.4865 99.4628 39.0604 99.6753 38.6794C100.161 37.8324 100.908 37.1644 101.804 36.7743C102.111 36.6318 102.428 36.5122 102.753 36.4164C103.134 36.3236 103.52 36.2542 103.909 36.2085C104.065 36.2015 104.218 36.1663 104.361 36.1046C104.361 36.1046 104.465 36.0123 104.511 35.9084H104.661C104.661 36.5549 104.661 36.8667 104.661 37.5133H104.511C104.48 37.448 104.432 37.3921 104.372 37.3516C104.294 37.3106 104.206 37.2907 104.118 37.2939C103.815 37.264 103.51 37.2874 103.215 37.3632C102.874 37.4309 102.543 37.5435 102.232 37.698C101.69 37.9294 101.242 38.3361 100.959 38.8526C100.825 39.1195 100.755 39.4141 100.755 39.7128C100.755 40.0115 100.825 40.306 100.959 40.573C101.073 40.8415 101.25 41.0784 101.476 41.2634C101.702 41.4484 101.969 41.576 102.255 41.6352C102.888 41.7564 103.544 41.6501 104.106 41.335C104.436 41.1797 104.747 40.9859 105.032 40.7577C105.286 40.5636 105.512 40.3342 105.703 40.0765C105.564 39.7878 105.483 39.6493 105.344 39.3606L103.898 40.0765C103.828 40.1108 103.768 40.1625 103.724 40.2266C103.706 40.3103 103.706 40.3969 103.724 40.4806L103.585 40.5499C103.343 40.0534 103.227 39.7994 102.984 39.3144L103.123 39.2452C103.168 39.3132 103.237 39.3617 103.316 39.3809C103.396 39.4002 103.479 39.3888 103.551 39.3491C104.708 38.8064 105.194 38.5293 106.281 37.952C106.307 37.993 106.33 38.0354 106.35 38.079C106.278 38.1321 106.222 38.204 106.188 38.2868C106.163 38.3537 106.163 38.4278 106.188 38.4947L106.755 39.5685C106.769 39.6021 106.79 39.6327 106.816 39.6585C106.841 39.6842 106.872 39.7046 106.906 39.7186C106.994 39.7351 107.084 39.7351 107.172 39.7186V39.8109C106.457 40.8655 105.491 41.7264 104.361 42.3164L104.372 42.3511Z" fill="url(#paint14_radial_6_70)"/>
<path d="M48.38 46.9464C48.0722 46.8111 47.7436 46.7291 47.4082 46.704L45.7308 46.473C45.4994 48.0318 45.3953 48.7822 45.1639 50.3872C45.858 50.4911 46.2167 50.5373 46.9108 50.6181C47.3375 50.6989 47.7772 50.6792 48.1949 50.5603C48.5204 50.4246 48.7978 50.1949 48.9915 49.9007C49.1853 49.6065 49.2866 49.2613 49.2823 48.9093C49.3761 48.3874 49.2642 47.8497 48.97 47.4083C48.8174 47.2052 48.6139 47.0459 48.38 46.9464Z" fill="url(#paint15_radial_6_70)"/>
<path d="M39.7498 45.4339L39.1251 45.2722C38.3037 45.099 37.8988 45.0067 37.0774 44.8104C36.9386 45.4108 36.8576 45.711 36.7188 46.3114L38.7896 46.7848C39.0031 46.8358 39.2194 46.8744 39.4375 46.9002C39.5636 46.924 39.6931 46.924 39.8192 46.9002C39.9365 46.8532 40.0403 46.7779 40.1212 46.681C40.2021 46.5842 40.2577 46.4688 40.2829 46.3452C40.3082 46.2216 40.3023 46.0936 40.2657 45.9729C40.2292 45.8521 40.1632 45.7423 40.0737 45.6533C39.979 45.5623 39.8695 45.4881 39.7498 45.4339Z" fill="url(#paint16_radial_6_70)"/>
<path d="M23.9124 43.448L25.879 44.1869C25.7749 43.2517 25.7286 42.7898 25.6361 41.8777C24.9535 42.5012 24.6065 42.8129 23.9124 43.448Z" fill="url(#paint17_radial_6_70)"/>
</g>
</g>
</g>
<defs>
<radialGradient id="paint0_radial_6_70" cx="0" cy="0" r="1" gradientUnits="userSpaceOnUse" gradientTransform="translate(59 63.9354) scale(59 108.891)">
<stop stop-color="#F2DAC2"/>
<stop offset="1" stop-color="#977656"/>
</radialGradient>
<radialGradient id="paint1_radial_6_70" cx="0" cy="0" r="1" gradientUnits="userSpaceOnUse" gradientTransform="translate(59 63.9354) scale(59 108.891)">
<stop stop-color="#F2DAC2"/>
<stop offset="1" stop-color="#977656"/>
</radialGradient>
<radialGradient id="paint2_radial_6_70" cx="0" cy="0" r="1" gradientUnits="userSpaceOnUse" gradientTransform="translate(59 63.9354) scale(59 108.891)">
<stop stop-color="#F2DAC2"/>
<stop offset="1" stop-color="#977656"/>
</radialGradient>
<radialGradient id="paint3_radial_6_70" cx="0" cy="0" r="1" gradientUnits="userSpaceOnUse" gradientTransform="translate(59 63.9354) scale(59 108.891)">
<stop stop-color="#F2DAC2"/>
<stop offset="1" stop-color="#977656"/>
</radialGradient>
<radialGradient id="paint4_radial_6_70" cx="0" cy="0" r="1" gradientUnits="userSpaceOnUse" gradientTransform="translate(59 63.9354) scale(59 108.891)">
<stop stop-color="#F2DAC2"/>
<stop offset="1" stop-color="#977656"/>
</radialGradient>
<radialGradient id="paint5_radial_6_70" cx="0" cy="0" r="1" gradientUnits="userSpaceOnUse" gradientTransform="translate(59 63.9354) scale(59 108.891)">
<stop stop-color="#F2DAC2"/>
<stop offset="1" stop-color="#977656"/>
</radialGradient>
<radialGradient id="paint6_radial_6_70" cx="0" cy="0" r="1" gradientUnits="userSpaceOnUse" gradientTransform="translate(59 63.9354) scale(59 108.891)">
<stop stop-color="#F2DAC2"/>
<stop offset="1" stop-color="#977656"/>
</radialGradient>
<radialGradient id="paint7_radial_6_70" cx="0" cy="0" r="1" gradientUnits="userSpaceOnUse" gradientTransform="translate(59 63.9354) scale(59 108.891)">
<stop stop-color="#F2DAC2"/>
<stop offset="1" stop-color="#977656"/>
</radialGradient>
<radialGradient id="paint8_radial_6_70" cx="0" cy="0" r="1" gradientUnits="userSpaceOnUse" gradientTransform="translate(59 63.9354) scale(59 108.891)">
<stop stop-color="#F2DAC2"/>
<stop offset="1" stop-color="#977656"/>
</radialGradient>
<radialGradient id="paint9_radial_6_70" cx="0" cy="0" r="1" gradientUnits="userSpaceOnUse" gradientTransform="translate(59 63.9354) scale(59 108.891)">
<stop stop-color="#F2DAC2"/>
<stop offset="1" stop-color="#977656"/>
</radialGradient>
<radialGradient id="paint10_radial_6_70" cx="0" cy="0" r="1" gradientUnits="userSpaceOnUse" gradientTransform="translate(59 63.9354) scale(59 108.891)">
<stop stop-color="#F2DAC2"/>
<stop offset="1" stop-color="#977656"/>
</radialGradient>
<radialGradient id="paint11_radial_6_70" cx="0" cy="0" r="1" gradientUnits="userSpaceOnUse" gradientTransform="translate(59 63.9354) scale(59 108.891)">
<stop stop-color="#F2DAC2"/>
<stop offset="1" stop-color="#977656"/>
</radialGradient>
<radialGradient id="paint12_radial_6_70" cx="0" cy="0" r="1" gradientUnits="userSpaceOnUse" gradientTransform="translate(59 63.9354) scale(59 108.891)">
<stop stop-color="#F2DAC2"/>
<stop offset="1" stop-color="#977656"/>
</radialGradient>
<radialGradient id="paint13_radial_6_70" cx="0" cy="0" r="1" gradientUnits="userSpaceOnUse" gradientTransform="translate(59 63.9354) scale(59 108.891)">
<stop stop-color="#F2DAC2"/>
<stop offset="1" stop-color="#977656"/>
</radialGradient>
<radialGradient id="paint14_radial_6_70" cx="0" cy="0" r="1" gradientUnits="userSpaceOnUse" gradientTransform="translate(59 63.9354) scale(59 108.891)">
<stop stop-color="#F2DAC2"/>
<stop offset="1" stop-color="#977656"/>
</radialGradient>
<radialGradient id="paint15_radial_6_70" cx="0" cy="0" r="1" gradientUnits="userSpaceOnUse" gradientTransform="translate(59 63.9354) scale(59 108.891)">
<stop stop-color="#F2DAC2"/>
<stop offset="1" stop-color="#977656"/>
</radialGradient>
<radialGradient id="paint16_radial_6_70" cx="0" cy="0" r="1" gradientUnits="userSpaceOnUse" gradientTransform="translate(59 63.9354) scale(59 108.891)">
<stop stop-color="#F2DAC2"/>
<stop offset="1" stop-color="#977656"/>
</radialGradient>
<radialGradient id="paint17_radial_6_70" cx="0" cy="0" r="1" gradientUnits="userSpaceOnUse" gradientTransform="translate(59 63.9354) scale(59 108.891)">
<stop stop-color="#F2DAC2"/>
<stop offset="1" stop-color="#977656"/>
</radialGradient>
<clipPath id="clip0_6_70">
<rect width="118" height="64" fill="white"/>
</clipPath>
</defs>
</svg>
